<svg xmlns="http://www.w3.org/2000/svg" viewBox="0 0 500 800" fill="none">
  <title>Buzo oversize</title>
  <g data-layer="top">
    <path d="M132 246C132 204 184 176 250 176s118 28 118 70v190c0 20-52 28-118 28s-118-8-118-28Z" fill="var(--fabric-primary)" stroke="var(--ink)" stroke-width="6" stroke-linejoin="round"/>
    <rect x="88" y="232" width="86" height="258" rx="43" fill="var(--fabric-primary)" stroke="var(--ink)" stroke-width="6"/>
    <rect x="326" y="232" width="86" height="258" rx="43" fill="var(--fabric-primary)" stroke="var(--ink)" stroke-width="6"/>
    <path d="M186 180c10 46 34 66 64 66s54-20 64-66c-24-14-104-14-128 0Z" fill="var(--fabric-secondary)" stroke="var(--ink)" stroke-width="6" stroke-linejoin="round"/>
    <rect x="192" y="330" width="116" height="66" rx="30" fill="var(--fabric-secondary)"/>
    <path d="M228 178v58" stroke="var(--ink)" stroke-width="5" stroke-linecap="round"/>
    <path d="M272 178v58" stroke="var(--ink)" stroke-width="5" stroke-linecap="round"/>
  </g>
</svg>
